<?xml version="1.0" encoding="UTF-8" standalone="no"?>
<!-- Created with Inkscape (http://www.inkscape.org/) -->

<svg
   width="81.487709mm"
   height="68.791687mm"
   viewBox="0 0 81.487709 68.791687"
   version="1.1"
   id="svg5"
   xml:space="preserve"
   xmlns:inkscape="http://www.inkscape.org/namespaces/inkscape"
   xmlns:sodipodi="http://sodipodi.sourceforge.net/DTD/sodipodi-0.dtd"
   xmlns="http://www.w3.org/2000/svg"
   xmlns:svg="http://www.w3.org/2000/svg"><sodipodi:namedview
     id="namedview7"
     pagecolor="#ffffff"
     bordercolor="#000000"
     borderopacity="0.25"
     inkscape:showpageshadow="2"
     inkscape:pageopacity="0.0"
     inkscape:pagecheckerboard="0"
     inkscape:deskcolor="#d1d1d1"
     inkscape:document-units="mm"
     showgrid="false" /><defs
     id="defs2" /><g
     inkscape:label="Lag 1"
     inkscape:groupmode="layer"
     id="layer1"
     transform="translate(-63.387342,-98.800016)"><path
       d="m 81.906133,112.55836 a 7.4083334,6.8791667 0 0 1 7.40838,-6.87917 3.704169,3.4395855 0 0 0 0,-6.87917 14.816666,13.758333 0 0 0 -14.81662,13.75834 v 10.31875 a 7.4083334,6.8791667 0 0 1 -7.40838,6.87916 3.704169,3.4395855 0 0 0 0,6.87917 7.4083334,6.8791667 0 0 1 7.40838,6.87917 v 10.31875 a 14.816666,13.758333 0 0 0 14.81662,13.75833 3.704169,3.4395855 0 0 0 0,-6.87917 7.4083334,6.8791667 0 0 1 -7.40838,-6.87916 v -10.31875 a 14.816666,13.758333 0 0 0 -5.11168,-10.31875 14.816666,13.758333 0 0 0 5.11168,-10.31875 z m 59.266757,17.19791 a 7.4083334,6.8791667 0 0 1 -7.40838,-6.87916 v -10.31875 a 14.816666,13.758333 0 0 0 -14.81662,-13.75834 3.704169,3.4395855 0 0 0 0,6.87917 7.4083334,6.8791667 0 0 1 7.40824,6.87917 v 10.31875 a 14.816666,13.758333 0 0 0 5.11182,10.31875 14.816666,13.758333 0 0 0 -5.11182,10.31875 v 10.31875 a 7.4083334,6.8791667 0 0 1 -7.40824,6.87916 3.704169,3.4395855 0 0 0 0,6.87917 14.816666,13.758333 0 0 0 14.81662,-13.75833 v -10.31875 a 7.4083334,6.8791667 0 0 1 7.40838,-6.87917 3.704169,3.4395855 0 0 0 0,-6.87917 z"
       id="path4213"
       style="fill:#00c79c;fill-opacity:1;stroke-width:3.56942" /></g></svg>
