<?xml version="1.0" encoding="UTF-8" standalone="no"?>
<!-- Created with Inkscape (http://www.inkscape.org/) -->

<svg
   width="96.715675mm"
   height="72.565712mm"
   viewBox="0 0 96.715675 72.565712"
   version="1.1"
   id="svg5"
   xml:space="preserve"
   xmlns:inkscape="http://www.inkscape.org/namespaces/inkscape"
   xmlns:sodipodi="http://sodipodi.sourceforge.net/DTD/sodipodi-0.dtd"
   xmlns="http://www.w3.org/2000/svg"
   xmlns:svg="http://www.w3.org/2000/svg"><sodipodi:namedview
     id="namedview7"
     pagecolor="#ffffff"
     bordercolor="#000000"
     borderopacity="0.25"
     inkscape:showpageshadow="2"
     inkscape:pageopacity="0.0"
     inkscape:pagecheckerboard="0"
     inkscape:deskcolor="#d1d1d1"
     inkscape:document-units="mm"
     showgrid="false" /><defs
     id="defs2" /><g
     inkscape:label="Lag 1"
     inkscape:groupmode="layer"
     id="layer1"
     transform="translate(-55.124795,-97.998342)"><path
       d="m 81.906133,112.55836 a 7.4083334,6.8791667 0 0 1 7.40838,-6.87917 3.704169,3.4395855 0 0 0 0,-6.87917 14.816666,13.758333 0 0 0 -14.81662,13.75834 v 10.31875 a 7.4083334,6.8791667 0 0 1 -7.40838,6.87916 3.704169,3.4395855 0 0 0 0,6.87917 7.4083334,6.8791667 0 0 1 7.40838,6.87917 v 10.31875 a 14.816666,13.758333 0 0 0 14.81662,13.75833 3.704169,3.4395855 0 0 0 0,-6.87917 7.4083334,6.8791667 0 0 1 -7.40838,-6.87916 v -10.31875 a 14.816666,13.758333 0 0 0 -5.11168,-10.31875 14.816666,13.758333 0 0 0 5.11168,-10.31875 z m 59.266757,17.19791 a 7.4083334,6.8791667 0 0 1 -7.40838,-6.87916 v -10.31875 a 14.816666,13.758333 0 0 0 -14.81662,-13.75834 3.704169,3.4395855 0 0 0 0,6.87917 7.4083334,6.8791667 0 0 1 7.40824,6.87917 v 10.31875 a 14.816666,13.758333 0 0 0 5.11182,10.31875 14.816666,13.758333 0 0 0 -5.11182,10.31875 v 10.31875 a 7.4083334,6.8791667 0 0 1 -7.40824,6.87916 3.704169,3.4395855 0 0 0 0,6.87917 14.816666,13.758333 0 0 0 14.81662,-13.75833 v -10.31875 a 7.4083334,6.8791667 0 0 1 7.40838,-6.87917 3.704169,3.4395855 0 0 0 0,-6.87917 z"
       id="path4213"
       style="display:none;fill:#00c79c;fill-opacity:1;stroke-width:3.56942"
       inkscape:export-filename="backend2.svg"
       inkscape:export-xdpi="100"
       inkscape:export-ydpi="100" /><path
       d="m 85.355054,157.48239 -2.642504,2.64251 q -0.528502,0.5285 -1.215553,0.5285 -0.687051,0 -1.215553,-0.5285 L 55.6533,135.49676 q -0.528502,-0.52851 -0.528502,-1.21556 0,-0.68705 0.528502,-1.21556 L 80.281444,108.4375 q 0.528506,-0.5285 1.215557,-0.5285 0.687051,0 1.215549,0.5285 l 2.642507,2.64251 q 0.528498,0.5285 0.528498,1.21554 0,0.68706 -0.528498,1.21556 l -20.770091,20.77009 20.770091,20.77009 q 0.528498,0.5285 0.528498,1.21555 0,0.68705 -0.528501,1.21555 z m 31.234406,-56.39106 -19.713082,68.22949 q -0.211401,0.68704 -0.819176,1.03057 -0.607779,0.34353 -1.24198,0.13213 l -3.276704,-0.89846 q -0.687052,-0.2114 -1.030579,-0.81917 -0.343523,-0.60778 -0.132125,-1.29483 L 110.0889,99.241576 q 0.2114,-0.687045 0.81918,-1.030568 0.60778,-0.343535 1.24197,-0.132134 l 3.27671,0.898452 q 0.68705,0.2114 1.03058,0.81918 0.34353,0.607784 0.13212,1.294824 z m 34.72251,34.40543 -24.62814,24.62814 q -0.5285,0.5285 -1.21555,0.5285 -0.68705,0 -1.21555,-0.5285 l -2.6425,-2.64251 q -0.52851,-0.5285 -0.52851,-1.21555 0,-0.68705 0.52851,-1.21555 l 20.77008,-20.77009 -20.77008,-20.77009 q -0.52851,-0.5285 -0.52851,-1.21556 0,-0.68704 0.52851,-1.21554 l 2.6425,-2.64251 q 0.5285,-0.5285 1.21555,-0.5285 0.68705,0 1.21555,0.5285 l 24.62814,24.62814 q 0.52851,0.52851 0.52851,1.21556 0,0.68705 -0.52851,1.21556 z"
       id="path6175"
       style="fill:#00c79c;fill-opacity:1;stroke-width:0.0528502" /></g></svg>
