<?xml version="1.0" encoding="UTF-8" standalone="no"?>
<!-- Created with Inkscape (http://www.inkscape.org/) -->

<svg
   width="129.032mm"
   height="148.67485mm"
   viewBox="0 0 129.032 148.67485"
   version="1.1"
   id="svg5"
   xml:space="preserve"
   xmlns:inkscape="http://www.inkscape.org/namespaces/inkscape"
   xmlns:sodipodi="http://sodipodi.sourceforge.net/DTD/sodipodi-0.dtd"
   xmlns="http://www.w3.org/2000/svg"
   xmlns:svg="http://www.w3.org/2000/svg"><sodipodi:namedview
     id="namedview7"
     pagecolor="#ffffff"
     bordercolor="#000000"
     borderopacity="0.25"
     inkscape:showpageshadow="2"
     inkscape:pageopacity="0.0"
     inkscape:pagecheckerboard="0"
     inkscape:deskcolor="#d1d1d1"
     inkscape:document-units="mm"
     showgrid="false" /><defs
     id="defs2" /><g
     inkscape:label="Lag 1"
     inkscape:groupmode="layer"
     id="layer1"
     inkscape:export-filename="web2.svg"
     inkscape:export-xdpi="100"
     inkscape:export-ydpi="100"
     transform="translate(-40.934285,-63.593336)"><path
       sodipodi:type="star"
       style="fill:#16574f;fill-opacity:1;stroke-width:0.264583"
       id="path288"
       inkscape:flatsided="true"
       sodipodi:sides="6"
       sodipodi:cx="33.370342"
       sodipodi:cy="79.198952"
       sodipodi:r1="74.337936"
       sodipodi:r2="64.37854"
       sodipodi:arg1="0.5198885"
       sodipodi:arg2="1.0434873"
       inkscape:rounded="0"
       inkscape:randomized="0"
       d="M 97.886347,116.1288 33.646156,153.53638 -30.869849,116.60653 -31.145663,42.269101 33.094529,4.861527 97.610534,41.791378 Z"
       transform="translate(72.079949,58.73181)" /></g><g
     id="XMLID_801_"
     transform="matrix(0.21497262,0,0,0.21497263,32.254829,40.362474)"
     style="display:inline;fill:#ffffff"
     inkscape:export-filename="linkedin2.svg"
     inkscape:export-xdpi="100"
     inkscape:export-ydpi="100">
	<path
   id="XMLID_802_"
   d="M 72.16,99.73 H 9.927 c -2.762,0 -5,2.239 -5,5 v 199.928 c 0,2.762 2.238,5 5,5 H 72.16 c 2.762,0 5,-2.238 5,-5 V 104.73 c 0,-2.761 -2.238,-5 -5,-5 z"
   style="fill:#ffffff" />
	<path
   id="XMLID_803_"
   d="M 41.066,0.341 C 18.422,0.341 0,18.743 0,41.362 0,63.991 18.422,82.4 41.066,82.4 63.692,82.4 82.099,63.99 82.099,41.362 82.1,18.743 63.692,0.341 41.066,0.341 Z"
   style="fill:#ffffff" />
	<path
   id="XMLID_804_"
   d="m 230.454,94.761 c -24.995,0 -43.472,10.745 -54.679,22.954 V 104.73 c 0,-2.761 -2.238,-5 -5,-5 h -59.599 c -2.762,0 -5,2.239 -5,5 v 199.928 c 0,2.762 2.238,5 5,5 h 62.097 c 2.762,0 5,-2.238 5,-5 V 205.74 c 0,-33.333 9.054,-46.319 32.29,-46.319 25.306,0 27.317,20.818 27.317,48.034 v 97.204 c 0,2.762 2.238,5 5,5 H 305 c 2.762,0 5,-2.238 5,-5 V 194.995 C 310,145.43 300.549,94.761 230.454,94.761 Z"
   style="fill:#ffffff" />
</g><g
     id="XMLID_510_"
     transform="matrix(0.27064446,0,0,0.27064448,22.591529,33.812661)"
     style="display:none;fill:#ffffff"
     inkscape:export-filename="mail2.svg"
     inkscape:export-xdpi="100"
     inkscape:export-ydpi="100">
	<path
   id="XMLID_511_"
   d="M 307.5,136.892 H 287.709 V 117.1 c 0,-4.143 -3.357,-7.5 -7.5,-7.5 h -26.717 c -4.143,0 -7.5,3.357 -7.5,7.5 v 19.792 h -19.791 c -4.143,0 -7.5,3.357 -7.5,7.5 v 26.717 c 0,4.143 3.357,7.5 7.5,7.5 h 19.791 v 19.792 c 0,4.142 3.357,7.5 7.5,7.5 h 26.717 c 4.143,0 7.5,-3.358 7.5,-7.5 V 178.609 H 307.5 c 4.143,0 7.5,-3.357 7.5,-7.5 v -26.717 c 0,-4.143 -3.357,-7.5 -7.5,-7.5 z"
   style="fill:#ffffff" />
	<path
   id="XMLID_512_"
   d="m 101.906,104.16 c 9.088,0 17.823,2.45 25.274,7.087 l 8.513,5.825 c 2.967,2.03 6.958,1.671 9.514,-0.861 l 24.828,-24.596 c 1.589,-1.574 2.392,-3.774 2.191,-6.001 -0.2,-2.227 -1.384,-4.248 -3.228,-5.513 l -14.43,-9.896 c -0.294,-0.201 -0.603,-0.382 -0.922,-0.539 l -13.979,-6.902 c -0.185,-0.092 -0.374,-0.176 -0.566,-0.252 -12.042,-4.754 -24.729,-7.165 -37.708,-7.165 -26.757,0 -51.996,10.27 -71.068,28.915 -19.367,18.934 -30.137,44.681 -30.323,72.499 -0.187,27.824 10.239,53.72 29.355,72.916 18.968,19.049 45.879,29.975 73.834,29.975 27.658,0 53.608,-10.739 71.195,-29.463 13.931,-14.831 22.48,-34.641 24.727,-57.288 0.021,-0.215 0.034,-0.43 0.036,-0.645 l 0.26,-20.345 c 0.006,-0.421 -0.024,-0.841 -0.09,-1.257 l -1.09,-6.953 c -0.571,-3.649 -3.716,-6.339 -7.409,-6.339 h -86.672 c -4.143,0 -7.5,3.358 -7.5,7.5 v 29.982 c 0,4.142 3.357,7.5 7.5,7.5 h 44.186 c -2.025,4.439 -5.216,9.12 -9.251,13.482 -8.801,9.518 -21.926,14.977 -36.01,14.977 -14.383,0 -28.157,-5.636 -37.79,-15.462 -20.052,-20.448 -19.822,-56.077 0.489,-76.245 9.562,-9.491 22.733,-14.936 36.134,-14.936 z"
   style="fill:#ffffff" />
</g><g
     style="display:none;fill:#ffffff"
     id="g1873"
     transform="matrix(0.23992427,0,0,0.23992427,25.869372,36.579714)"
     inkscape:export-filename="web2.svg"
     inkscape:export-xdpi="100"
     inkscape:export-ydpi="100"><g
       id="XMLID_806_"
       style="display:inline;fill:#ffffff">
	<path
   id="XMLID_810_"
   d="m 157.502,315.005 c 86.846,0 157.5,-70.659 157.5,-157.51 C 315.002,70.652 244.348,0 157.502,0 70.656,0 0.002,70.652 0.002,157.495 c 0,86.851 70.655,157.51 157.5,157.51 z m 0,-36.685 c -24.949,0 -48.641,-7.47 -68.91,-21.669 8.266,-13.713 33.391,-48.075 87.209,-68.604 13.566,36.779 20.475,68.164 23.279,82.886 -13.275,4.905 -27.232,7.387 -41.578,7.387 z m 76.721,-27.623 c -3.045,-14.877 -9.189,-41.054 -19.854,-71.896 5.393,-0.537 10.916,-0.808 16.516,-0.808 19.547,0 35.857,3.27 44.469,5.419 -5.752,26.282 -20.336,50.074 -41.131,67.285 z M 256.364,88.678 c 12.102,17.326 19.482,37.668 21.311,58.722 -11.098,-1.822 -30.111,-4.287 -51.752,-4.287 -8.576,0 -16.879,0.394 -24.762,1.172 -0.207,-0.494 -0.416,-0.99 -0.627,-1.488 -1.645,-3.846 -3.41,-7.792 -5.271,-11.792 32.155,-14.424 51.64,-32.09 61.101,-42.327 z m -98.862,-51.61 c 27.08,0 53.256,9.115 74.467,25.806 -7.313,8.176 -23.978,23.742 -53.309,35.865 -14.623,-26.151 -29.629,-48.322 -38.209,-60.465 5.626,-0.802 11.329,-1.206 17.051,-1.206 z M 100.67,51.327 c 7.076,9.965 22.684,32.586 38.441,59.674 C 96.728,121.22 59.486,123.438 41.709,123.87 50.77,92.999 72.155,66.631 100.67,51.327 Z m 56.547,93.158 c 1.373,2.775 2.689,5.51 3.949,8.194 -53.535,18.399 -86.77,59.432 -99.615,78.029 -15.254,-20 -23.875,-44.212 -24.625,-69.414 18.639,-0.195 68.336,-2.21 120.291,-16.809 z"
   style="fill:#ffffff" />
</g></g></svg>
