<?xml version="1.0" encoding="UTF-8" standalone="no"?>
<!-- Created with Inkscape (http://www.inkscape.org/) -->

<svg
   width="73.898758mm"
   height="73.941116mm"
   viewBox="0 0 73.898758 73.941116"
   version="1.1"
   id="svg5"
   xml:space="preserve"
   xmlns:inkscape="http://www.inkscape.org/namespaces/inkscape"
   xmlns:sodipodi="http://sodipodi.sourceforge.net/DTD/sodipodi-0.dtd"
   xmlns="http://www.w3.org/2000/svg"
   xmlns:svg="http://www.w3.org/2000/svg"><sodipodi:namedview
     id="namedview7"
     pagecolor="#ffffff"
     bordercolor="#000000"
     borderopacity="0.25"
     inkscape:showpageshadow="2"
     inkscape:pageopacity="0.0"
     inkscape:pagecheckerboard="0"
     inkscape:deskcolor="#d1d1d1"
     inkscape:document-units="mm"
     showgrid="false" /><defs
     id="defs2" /><g
     inkscape:label="Lag 1"
     inkscape:groupmode="layer"
     id="layer1"
     transform="translate(-66.708269,-97.359998)"><path
       d="m 81.906133,112.55836 a 7.4083334,6.8791667 0 0 1 7.40838,-6.87917 3.704169,3.4395855 0 0 0 0,-6.87917 14.816666,13.758333 0 0 0 -14.81662,13.75834 v 10.31875 a 7.4083334,6.8791667 0 0 1 -7.40838,6.87916 3.704169,3.4395855 0 0 0 0,6.87917 7.4083334,6.8791667 0 0 1 7.40838,6.87917 v 10.31875 a 14.816666,13.758333 0 0 0 14.81662,13.75833 3.704169,3.4395855 0 0 0 0,-6.87917 7.4083334,6.8791667 0 0 1 -7.40838,-6.87916 v -10.31875 a 14.816666,13.758333 0 0 0 -5.11168,-10.31875 14.816666,13.758333 0 0 0 5.11168,-10.31875 z m 59.266757,17.19791 a 7.4083334,6.8791667 0 0 1 -7.40838,-6.87916 v -10.31875 a 14.816666,13.758333 0 0 0 -14.81662,-13.75834 3.704169,3.4395855 0 0 0 0,6.87917 7.4083334,6.8791667 0 0 1 7.40824,6.87917 v 10.31875 a 14.816666,13.758333 0 0 0 5.11182,10.31875 14.816666,13.758333 0 0 0 -5.11182,10.31875 v 10.31875 a 7.4083334,6.8791667 0 0 1 -7.40824,6.87916 3.704169,3.4395855 0 0 0 0,6.87917 14.816666,13.758333 0 0 0 14.81662,-13.75833 v -10.31875 a 7.4083334,6.8791667 0 0 1 7.40838,-6.87917 3.704169,3.4395855 0 0 0 0,-6.87917 z"
       id="path4213"
       style="display:none;fill:#00c79c;fill-opacity:1;stroke-width:3.56942"
       inkscape:export-filename="backend2.svg"
       inkscape:export-xdpi="100"
       inkscape:export-ydpi="100" /><path
       d="m 85.355054,157.48239 -2.642504,2.64251 q -0.528502,0.5285 -1.215553,0.5285 -0.687051,0 -1.215553,-0.5285 L 55.6533,135.49676 q -0.528502,-0.52851 -0.528502,-1.21556 0,-0.68705 0.528502,-1.21556 L 80.281444,108.4375 q 0.528506,-0.5285 1.215557,-0.5285 0.687051,0 1.215549,0.5285 l 2.642507,2.64251 q 0.528498,0.5285 0.528498,1.21554 0,0.68706 -0.528498,1.21556 l -20.770091,20.77009 20.770091,20.77009 q 0.528498,0.5285 0.528498,1.21555 0,0.68705 -0.528501,1.21555 z m 31.234406,-56.39106 -19.713082,68.22949 q -0.211401,0.68704 -0.819176,1.03057 -0.607779,0.34353 -1.24198,0.13213 l -3.276704,-0.89846 q -0.687052,-0.2114 -1.030579,-0.81917 -0.343523,-0.60778 -0.132125,-1.29483 L 110.0889,99.241576 q 0.2114,-0.687045 0.81918,-1.030568 0.60778,-0.343535 1.24197,-0.132134 l 3.27671,0.898452 q 0.68705,0.2114 1.03058,0.81918 0.34353,0.607784 0.13212,1.294824 z m 34.72251,34.40543 -24.62814,24.62814 q -0.5285,0.5285 -1.21555,0.5285 -0.68705,0 -1.21555,-0.5285 l -2.6425,-2.64251 q -0.52851,-0.5285 -0.52851,-1.21555 0,-0.68705 0.52851,-1.21555 l 20.77008,-20.77009 -20.77008,-20.77009 q -0.52851,-0.5285 -0.52851,-1.21556 0,-0.68704 0.52851,-1.21554 l 2.6425,-2.64251 q 0.5285,-0.5285 1.21555,-0.5285 0.68705,0 1.21555,0.5285 l 24.62814,24.62814 q 0.52851,0.52851 0.52851,1.21556 0,0.68705 -0.52851,1.21556 z"
       id="path6175"
       style="display:none;fill:#00c79c;fill-opacity:1;stroke-width:0.0528502"
       inkscape:export-filename="frontend2.svg"
       inkscape:export-xdpi="100"
       inkscape:export-ydpi="100" /><g
       style="fill:#00c79c;fill-opacity:1"
       id="g6246"
       transform="matrix(1.1515693,0,0,1.1515693,62.800656,94.026201)"><g
         id="g6228"
         style="fill:#00c79c;fill-opacity:1">
	<path
   d="m 63.799,35.485 c -2.429,-2.43 -5.659,-3.768 -9.095,-3.768 -1.424,0 -2.833,0.236 -4.169,0.691 -1.613,-1.061 -3.061,-2.161 -4.392,-3.311 0.987,-1.079 2.765,-2.273 5.913,-2.587 2.397,-0.24 4.369,-1.29 5.701,-3.036 2.758,-3.612 1.96,-8.916 1.859,-9.509 -0.184,-1.09 -1.219,-1.832 -2.305,-1.639 -1.089,0.184 -1.823,1.216 -1.639,2.305 0.007,0.041 0.64,4.143 -1.096,6.416 -0.661,0.867 -1.617,1.353 -2.92,1.482 -4.298,0.429 -6.886,2.17 -8.396,3.788 -1.951,-2.134 -3.574,-4.48 -4.969,-7.159 C 39.479,14.761 38.257,9.944 34.979,6.667 32.546,4.234 29.312,2.895 25.872,2.895 c -3.441,0 -6.676,1.34 -9.108,3.772 l -5.912,5.912 c -4.141,4.144 -11.086,17.472 -5.17,23.39 1.297,1.296 3.073,1.953 5.279,1.953 2.924,0 6.417,-1.203 9.206,-2.247 L 34.791,50.3 c -1.884,5.023 -3.827,10.951 -0.293,14.484 1.058,1.059 3.005,2.32 6.267,2.32 6.202,0 14.062,-4.43 17.123,-7.492 l 5.911,-5.91 c 5.022,-5.023 5.022,-13.195 0,-18.217 z m -2.828,15.389 -5.911,5.91 c -2.659,2.66 -9.626,6.32 -14.295,6.32 -1.421,0 -2.629,-0.34 -3.438,-1.148 -2.213,-2.213 0.85,-9.16 2.115,-12.662 L 21.174,31.026 c -2.618,0.946 -7.161,2.896 -10.213,2.896 -1.03,0 -1.892,-0.223 -2.45,-0.781 -3.468,-3.469 1.704,-14.265 5.173,-17.732 l 5.911,-5.912 c 1.733,-1.734 4.007,-2.601 6.28,-2.601 2.272,0 4.545,0.866 6.279,2.601 2.686,2.686 3.283,6.661 1.809,9.93 3.118,6.614 7.614,12.289 16.25,17.506 1.383,-0.81 2.938,-1.215 4.491,-1.215 2.269,0 4.535,0.864 6.267,2.596 3.468,3.468 3.468,9.091 0,12.56 z"
   id="path6208"
   style="fill:#00c79c;fill-opacity:1" />
	<path
   d="m 32.492,29.109 c -0.391,-0.391 -1.023,-0.391 -1.414,0 -0.391,0.391 -0.391,1.023 0,1.414 l 2.955,2.955 c 0.195,0.195 0.451,0.293 0.707,0.293 0.256,0 0.512,-0.098 0.707,-0.293 0.391,-0.391 0.391,-1.023 0,-1.414 z"
   id="path6210"
   style="fill:#00c79c;fill-opacity:1" />
	<path
   d="m 26.582,15.809 c -0.391,-0.391 -1.023,-0.391 -1.414,0 l -2.987,2.987 -2.987,-2.987 c -0.391,-0.391 -1.023,-0.391 -1.414,0 -0.391,0.391 -0.391,1.023 0,1.414 l 2.987,2.987 -2.987,2.987 c -0.391,0.391 -0.391,1.023 0,1.414 0.195,0.195 0.451,0.293 0.707,0.293 0.256,0 0.512,-0.098 0.707,-0.293 l 2.987,-2.987 2.987,2.987 c 0.195,0.195 0.451,0.293 0.707,0.293 0.256,0 0.512,-0.098 0.707,-0.293 0.391,-0.391 0.391,-1.023 0,-1.414 l -2.987,-2.987 2.987,-2.987 c 0.391,-0.39 0.391,-1.023 0,-1.414 z"
   id="path6212"
   style="fill:#00c79c;fill-opacity:1" />
	<path
   d="m 55.46,50.534 c -0.19,0.189 -0.29,0.439 -0.29,0.709 0,0.26 0.1,0.52 0.29,0.701 0.189,0.189 0.439,0.299 0.71,0.299 0.26,0 0.52,-0.109 0.71,-0.289 0.18,-0.191 0.29,-0.451 0.29,-0.711 0,-0.26 -0.11,-0.52 -0.29,-0.709 -0.37,-0.371 -1.061,-0.371 -1.42,0 z"
   id="path6214"
   style="fill:#00c79c;fill-opacity:1" />
	<path
   d="m 55.46,43.144 c -0.19,0.189 -0.29,0.449 -0.29,0.709 0,0.271 0.1,0.521 0.29,0.711 0.189,0.18 0.439,0.289 0.71,0.289 0.26,0 0.52,-0.109 0.7,-0.289 0.189,-0.189 0.3,-0.439 0.3,-0.711 0,-0.26 -0.11,-0.52 -0.3,-0.709 -0.37,-0.372 -1.04,-0.372 -1.41,0 z"
   id="path6216"
   style="fill:#00c79c;fill-opacity:1" />
	<path
   d="m 51.03,50.534 c -0.19,0.189 -0.301,0.439 -0.301,0.709 0,0.26 0.11,0.52 0.29,0.701 0.19,0.189 0.45,0.299 0.71,0.299 0.271,0 0.521,-0.109 0.71,-0.289 0.19,-0.191 0.29,-0.451 0.29,-0.711 0,-0.27 -0.1,-0.52 -0.29,-0.709 -0.359,-0.371 -1.049,-0.371 -1.409,0 z"
   id="path6218"
   style="fill:#00c79c;fill-opacity:1" />
	<path
   d="m 51.03,43.144 c -0.19,0.189 -0.301,0.449 -0.301,0.709 0,0.271 0.11,0.531 0.301,0.711 0.18,0.18 0.439,0.289 0.699,0.289 0.271,0 0.521,-0.109 0.71,-0.289 0.19,-0.189 0.29,-0.439 0.29,-0.711 0,-0.26 -0.1,-0.52 -0.29,-0.709 -0.37,-0.372 -1.04,-0.372 -1.409,0 z"
   id="path6220"
   style="fill:#00c79c;fill-opacity:1" />
	<path
   d="m 46.59,50.534 c -0.18,0.189 -0.29,0.439 -0.29,0.709 0,0.26 0.11,0.52 0.29,0.701 0.19,0.189 0.45,0.299 0.71,0.299 0.26,0 0.52,-0.109 0.71,-0.289 0.18,-0.191 0.29,-0.441 0.29,-0.711 0,-0.27 -0.11,-0.529 -0.29,-0.709 -0.361,-0.371 -1.05,-0.371 -1.42,0 z"
   id="path6222"
   style="fill:#00c79c;fill-opacity:1" />
	<path
   d="m 46.59,43.144 c -0.18,0.189 -0.29,0.449 -0.29,0.709 0,0.271 0.11,0.521 0.29,0.711 0.19,0.18 0.45,0.289 0.71,0.289 0.26,0 0.52,-0.109 0.71,-0.289 0.19,-0.189 0.29,-0.449 0.29,-0.711 0,-0.26 -0.1,-0.52 -0.29,-0.709 -0.38,-0.372 -1.04,-0.372 -1.42,0 z"
   id="path6224"
   style="fill:#00c79c;fill-opacity:1" />
	<path
   d="m 38.404,35.02 c -0.391,-0.391 -1.023,-0.391 -1.414,0 -0.391,0.391 -0.391,1.023 0,1.414 l 2.955,2.956 c 0.195,0.195 0.451,0.293 0.707,0.293 0.256,0 0.512,-0.098 0.707,-0.293 0.391,-0.391 0.391,-1.024 0,-1.415 z"
   id="path6226"
   style="fill:#00c79c;fill-opacity:1" />
</g></g></g></svg>
