<?xml version="1.0" encoding="UTF-8" standalone="no"?>
<!-- Created with Inkscape (http://www.inkscape.org/) -->

<svg
   width="129.03201mm"
   height="148.67485mm"
   viewBox="0 0 129.03202 148.67485"
   version="1.1"
   id="svg5"
   xml:space="preserve"
   sodipodi:docname="linkedin2.svg"
   xmlns:inkscape="http://www.inkscape.org/namespaces/inkscape"
   xmlns:sodipodi="http://sodipodi.sourceforge.net/DTD/sodipodi-0.dtd"
   xmlns="http://www.w3.org/2000/svg"
   xmlns:svg="http://www.w3.org/2000/svg"><sodipodi:namedview
     id="namedview7"
     pagecolor="#ffffff"
     bordercolor="#000000"
     borderopacity="0.25"
     inkscape:showpageshadow="2"
     inkscape:pageopacity="0.0"
     inkscape:pagecheckerboard="0"
     inkscape:deskcolor="#d1d1d1"
     inkscape:document-units="mm"
     showgrid="false" /><defs
     id="defs2" /><g
     inkscape:label="Lag 1"
     inkscape:groupmode="layer"
     id="layer1"
     inkscape:export-filename="web2.svg"
     inkscape:export-xdpi="100"
     inkscape:export-ydpi="100"
     transform="translate(-40.934286,-63.593337)"><path
       sodipodi:type="star"
       style="fill:#16574f;fill-opacity:1;stroke-width:0.264583"
       id="path288"
       inkscape:flatsided="true"
       sodipodi:sides="6"
       sodipodi:cx="33.370342"
       sodipodi:cy="79.198952"
       sodipodi:r1="74.337936"
       sodipodi:r2="64.37854"
       sodipodi:arg1="0.5198885"
       sodipodi:arg2="1.0434873"
       inkscape:rounded="0"
       inkscape:randomized="0"
       d="M 97.886347,116.1288 33.646156,153.53638 -30.869849,116.60653 -31.145663,42.269101 33.094529,4.861527 97.610534,41.791378 Z"
       transform="translate(72.079949,58.73181)" /></g><g
     id="XMLID_801_"
     transform="matrix(0.21497262,0,0,0.21497263,32.254828,40.362473)"
     style="display:none;fill:#ffffff"
     inkscape:export-filename="linkedin2.svg"
     inkscape:export-xdpi="100"
     inkscape:export-ydpi="100">
	<path
   id="XMLID_802_"
   d="M 72.16,99.73 H 9.927 c -2.762,0 -5,2.239 -5,5 v 199.928 c 0,2.762 2.238,5 5,5 H 72.16 c 2.762,0 5,-2.238 5,-5 V 104.73 c 0,-2.761 -2.238,-5 -5,-5 z"
   style="fill:#ffffff" />
	<path
   id="XMLID_803_"
   d="M 41.066,0.341 C 18.422,0.341 0,18.743 0,41.362 0,63.991 18.422,82.4 41.066,82.4 63.692,82.4 82.099,63.99 82.099,41.362 82.1,18.743 63.692,0.341 41.066,0.341 Z"
   style="fill:#ffffff" />
	<path
   id="XMLID_804_"
   d="m 230.454,94.761 c -24.995,0 -43.472,10.745 -54.679,22.954 V 104.73 c 0,-2.761 -2.238,-5 -5,-5 h -59.599 c -2.762,0 -5,2.239 -5,5 v 199.928 c 0,2.762 2.238,5 5,5 h 62.097 c 2.762,0 5,-2.238 5,-5 V 205.74 c 0,-33.333 9.054,-46.319 32.29,-46.319 25.306,0 27.317,20.818 27.317,48.034 v 97.204 c 0,2.762 2.238,5 5,5 H 305 c 2.762,0 5,-2.238 5,-5 V 194.995 C 310,145.43 300.549,94.761 230.454,94.761 Z"
   style="fill:#ffffff" />
</g><g
     id="XMLID_510_"
     transform="matrix(0.27064446,0,0,0.27064448,22.591528,33.81266)"
     style="display:none;fill:#ffffff"
     inkscape:export-filename="mail2.svg"
     inkscape:export-xdpi="100"
     inkscape:export-ydpi="100">
	<path
   id="XMLID_511_"
   d="M 307.5,136.892 H 287.709 V 117.1 c 0,-4.143 -3.357,-7.5 -7.5,-7.5 h -26.717 c -4.143,0 -7.5,3.357 -7.5,7.5 v 19.792 h -19.791 c -4.143,0 -7.5,3.357 -7.5,7.5 v 26.717 c 0,4.143 3.357,7.5 7.5,7.5 h 19.791 v 19.792 c 0,4.142 3.357,7.5 7.5,7.5 h 26.717 c 4.143,0 7.5,-3.358 7.5,-7.5 V 178.609 H 307.5 c 4.143,0 7.5,-3.357 7.5,-7.5 v -26.717 c 0,-4.143 -3.357,-7.5 -7.5,-7.5 z"
   style="fill:#ffffff" />
	<path
   id="XMLID_512_"
   d="m 101.906,104.16 c 9.088,0 17.823,2.45 25.274,7.087 l 8.513,5.825 c 2.967,2.03 6.958,1.671 9.514,-0.861 l 24.828,-24.596 c 1.589,-1.574 2.392,-3.774 2.191,-6.001 -0.2,-2.227 -1.384,-4.248 -3.228,-5.513 l -14.43,-9.896 c -0.294,-0.201 -0.603,-0.382 -0.922,-0.539 l -13.979,-6.902 c -0.185,-0.092 -0.374,-0.176 -0.566,-0.252 -12.042,-4.754 -24.729,-7.165 -37.708,-7.165 -26.757,0 -51.996,10.27 -71.068,28.915 -19.367,18.934 -30.137,44.681 -30.323,72.499 -0.187,27.824 10.239,53.72 29.355,72.916 18.968,19.049 45.879,29.975 73.834,29.975 27.658,0 53.608,-10.739 71.195,-29.463 13.931,-14.831 22.48,-34.641 24.727,-57.288 0.021,-0.215 0.034,-0.43 0.036,-0.645 l 0.26,-20.345 c 0.006,-0.421 -0.024,-0.841 -0.09,-1.257 l -1.09,-6.953 c -0.571,-3.649 -3.716,-6.339 -7.409,-6.339 h -86.672 c -4.143,0 -7.5,3.358 -7.5,7.5 v 29.982 c 0,4.142 3.357,7.5 7.5,7.5 h 44.186 c -2.025,4.439 -5.216,9.12 -9.251,13.482 -8.801,9.518 -21.926,14.977 -36.01,14.977 -14.383,0 -28.157,-5.636 -37.79,-15.462 -20.052,-20.448 -19.822,-56.077 0.489,-76.245 9.562,-9.491 22.733,-14.936 36.134,-14.936 z"
   style="fill:#ffffff" />
</g><g
     style="display:none;fill:#ffffff"
     id="g1873"
     transform="matrix(0.23992427,0,0,0.23992427,25.869371,36.579713)"
     inkscape:export-filename="web2.svg"
     inkscape:export-xdpi="100"
     inkscape:export-ydpi="100"><g
       id="XMLID_806_"
       style="display:inline;fill:#ffffff">
	<path
   id="XMLID_810_"
   d="m 157.502,315.005 c 86.846,0 157.5,-70.659 157.5,-157.51 C 315.002,70.652 244.348,0 157.502,0 70.656,0 0.002,70.652 0.002,157.495 c 0,86.851 70.655,157.51 157.5,157.51 z m 0,-36.685 c -24.949,0 -48.641,-7.47 -68.91,-21.669 8.266,-13.713 33.391,-48.075 87.209,-68.604 13.566,36.779 20.475,68.164 23.279,82.886 -13.275,4.905 -27.232,7.387 -41.578,7.387 z m 76.721,-27.623 c -3.045,-14.877 -9.189,-41.054 -19.854,-71.896 5.393,-0.537 10.916,-0.808 16.516,-0.808 19.547,0 35.857,3.27 44.469,5.419 -5.752,26.282 -20.336,50.074 -41.131,67.285 z M 256.364,88.678 c 12.102,17.326 19.482,37.668 21.311,58.722 -11.098,-1.822 -30.111,-4.287 -51.752,-4.287 -8.576,0 -16.879,0.394 -24.762,1.172 -0.207,-0.494 -0.416,-0.99 -0.627,-1.488 -1.645,-3.846 -3.41,-7.792 -5.271,-11.792 32.155,-14.424 51.64,-32.09 61.101,-42.327 z m -98.862,-51.61 c 27.08,0 53.256,9.115 74.467,25.806 -7.313,8.176 -23.978,23.742 -53.309,35.865 -14.623,-26.151 -29.629,-48.322 -38.209,-60.465 5.626,-0.802 11.329,-1.206 17.051,-1.206 z M 100.67,51.327 c 7.076,9.965 22.684,32.586 38.441,59.674 C 96.728,121.22 59.486,123.438 41.709,123.87 50.77,92.999 72.155,66.631 100.67,51.327 Z m 56.547,93.158 c 1.373,2.775 2.689,5.51 3.949,8.194 -53.535,18.399 -86.77,59.432 -99.615,78.029 -15.254,-20 -23.875,-44.212 -24.625,-69.414 18.639,-0.195 68.336,-2.21 120.291,-16.809 z"
   style="fill:#ffffff" />
</g></g><g
     style="display:inline;fill:#ffffff"
     id="g275"
     transform="matrix(0.07475201,0,0,0.07475201,25.519459,35.875658)"><path
       fill-rule="evenodd"
       clip-rule="evenodd"
       d="M 8,0 C 3.58,0 0,3.58 0,8 c 0,3.54 2.29,6.53 5.47,7.59 0.4,0.07 0.55,-0.17 0.55,-0.38 0,-0.19 -0.01,-0.82 -0.01,-1.49 C 4,14.09 3.48,13.23 3.32,12.78 3.23,12.55 2.84,11.84 2.5,11.65 2.22,11.5 1.82,11.13 2.49,11.12 3.12,11.11 3.57,11.7 3.72,11.94 4.44,13.15 5.59,12.81 6.05,12.6 6.12,12.08 6.33,11.73 6.56,11.53 4.78,11.33 2.92,10.64 2.92,7.58 2.92,6.71 3.23,5.99 3.74,5.43 3.66,5.23 3.38,4.41 3.82,3.31 c 0,0 0.67,-0.21 2.2,0.82 0.64,-0.18 1.32,-0.27 2,-0.27 0.68,0 1.36,0.09 2,0.27 1.53,-1.04 2.2,-0.82 2.2,-0.82 0.44,1.1 0.16,1.92 0.08,2.12 0.51,0.56 0.82,1.27 0.82,2.15 0,3.07 -1.87,3.75 -3.65,3.95 0.29,0.25 0.54,0.73 0.54,1.48 0,1.07 -0.01,1.93 -0.01,2.2 0,0.21 0.15,0.46 0.55,0.38 C 13.71,14.53 16,11.53 16,8 16,3.58 12.42,0 8,0 Z"
       transform="scale(64)"
       fill="#1b1f23"
       id="path266"
       style="fill:#ffffff" /></g><path
     style="fill:#ffffff;stroke-width:0.174296"
     d="M 50.91305,110.05608 C 46.111195,108.42059 40.785914,105.05439 36.94986,101.22972 33.717025,98.00648 31.544523,94.976794 29.539548,90.895583 22.328546,76.217302 25.242961,58.791957 36.858341,47.136382 48.274789,35.680424 65.841219,32.731031 80.437797,39.819422 c 7.735237,3.756383 13.779199,9.79896 17.615294,17.611249 8.815609,17.953183 2.286589,39.47301 -15.087994,49.730439 -1.805754,1.06606 -4.665448,2.39411 -6.445829,2.99344 -0.958985,0.32283 -1.229185,0.35055 -1.787244,0.18335 -1.278364,-0.38301 -1.265407,-0.30397 -1.271522,-7.75689 -0.0048,-5.794053 -0.04391,-6.760933 -0.310298,-7.661808 -0.391067,-1.322522 -1.068416,-2.674871 -1.641697,-3.277708 -0.530566,-0.557922 -0.681913,-0.488585 2.135262,-0.978228 9.536538,-1.657519 14.242441,-7.149698 14.660631,-17.110175 0.124507,-2.965546 -0.153334,-4.970399 -0.989198,-7.137871 -0.544785,-1.412674 -1.616348,-3.230759 -2.38874,-4.05289 l -0.443003,-0.471533 0.322212,-1.097137 c 0.653172,-2.224053 0.378476,-6.368232 -0.573973,-8.659259 l -0.245391,-0.590265 -1.425662,0.09154 c -0.784114,0.05035 -1.935478,0.264205 -2.558587,0.475242 -1.435904,0.486315 -3.943699,1.726467 -5.377622,2.659335 l -1.107361,0.720416 -0.984197,-0.214421 C 66.826451,54.033019 62.036262,53.95272 56.630783,55.009686 l -2.368556,0.463137 -1.030224,-0.661149 c -1.453184,-0.932582 -4.124139,-2.233895 -5.561933,-2.70982 -0.842462,-0.278865 -1.645859,-0.406815 -2.595795,-0.413411 l -1.37572,-0.0096 -0.329602,0.958631 c -0.875763,2.547114 -1.028192,5.593847 -0.40432,8.081475 l 0.279254,1.113497 -0.874879,1.155877 c -1.081915,1.429409 -1.991288,3.292819 -2.486742,5.095621 -0.546415,1.988243 -0.541345,6.843326 0.0099,9.443458 1.377948,6.500013 4.665798,10.277734 10.700001,12.294242 1.37195,0.458478 4.671656,1.161042 5.453021,1.161042 0.54022,0 0.535805,0.137253 -0.02836,0.881195 -0.590839,0.779113 -1.088141,1.884704 -1.440762,3.203062 l -0.282842,1.057489 -1.132851,0.382244 c -3.979254,1.34267 -7.217129,0.195521 -9.668703,-3.425534 -0.974093,-1.438767 -2.532359,-2.95951 -3.580395,-3.494175 -1.381077,-0.704575 -4.04672,-0.694629 -4.272245,0.01593 -0.161782,0.509728 0.272256,1.062358 1.515528,1.929617 1.495298,1.043064 2.586704,2.458728 3.859882,5.006641 0.593002,1.186731 1.363522,2.480882 1.712261,2.875891 0.899758,1.019124 2.2845,1.790544 3.986877,2.221044 1.290905,0.32644 1.787649,0.35987 4.088868,0.27522 1.440699,-0.053 2.795923,-0.15055 3.011617,-0.21678 l 0.392166,-0.12043 v 3.81607 c 0,4.23871 -0.03967,4.4067 -1.150107,4.87067 -0.729536,0.30482 -0.614424,0.31582 -2.14303,-0.20481 z"
     id="path469" /></svg>
